<?xml version="1.0" encoding="UTF-8" ?>
<!DOCTYPE svg PUBLIC "-//W3C//DTD SVG 1.1//EN" "http://www.w3.org/Graphics/SVG/1.1/DTD/svg11.dtd">
<svg width="512pt" height="512pt" viewBox="0 0 512 512" version="1.1" xmlns="http://www.w3.org/2000/svg">
<g id="#010101ff">
</g>
<g id="#394553ff">
<path fill="#394553" opacity="1.00" d=" M 114.51 100.92 C 187.58 100.88 260.65 100.87 333.72 100.92 C 333.75 166.61 333.71 232.31 333.74 298.00 C 340.16 297.96 346.58 297.99 353.00 298.00 C 352.99 266.99 352.98 235.99 353.00 204.99 C 352.74 200.69 356.67 196.92 360.94 197.25 C 381.31 197.21 401.67 197.28 422.03 197.22 C 424.60 197.10 427.30 197.84 429.06 199.82 C 445.05 219.03 455.41 242.21 463.08 265.82 C 468.78 267.73 474.43 269.78 480.11 271.74 C 483.70 272.99 487.51 274.00 490.55 276.41 C 494.89 279.67 497.90 284.60 498.80 289.96 C 499.53 294.59 499.23 299.30 499.26 303.98 C 499.24 319.66 499.27 335.34 499.26 351.02 C 499.27 355.61 499.52 360.39 497.75 364.73 C 495.88 369.72 492.10 374.37 486.74 375.72 C 482.32 377.54 477.57 376.22 472.98 376.35 C 467.79 376.43 462.61 376.42 457.42 376.39 C 455.70 390.31 445.99 402.68 433.18 408.19 C 424.78 411.88 414.90 412.08 406.38 408.64 C 390.12 402.37 378.22 384.50 381.46 366.92 C 384.18 351.56 396.85 338.57 412.07 335.30 C 420.90 333.34 430.31 335.27 437.99 339.94 C 446.20 344.78 452.22 352.62 455.76 361.39 C 465.15 361.19 474.58 361.74 483.95 360.82 C 484.59 339.58 484.02 318.31 484.25 297.06 C 484.25 293.72 484.21 288.97 480.31 287.76 C 471.65 284.63 462.89 281.76 454.24 278.59 C 451.90 277.81 450.15 275.83 449.51 273.47 C 443.54 252.98 434.96 232.99 422.34 215.67 C 421.14 214.34 420.23 212.06 418.09 212.30 C 401.42 212.23 384.75 212.27 368.08 212.28 C 367.94 255.24 368.13 298.21 367.99 341.17 C 362.99 341.21 358.00 341.26 353.01 341.18 C 352.95 331.79 353.01 322.40 352.98 313.02 C 270.84 313.08 188.69 312.97 106.55 313.07 C 106.48 329.14 106.52 345.21 106.54 361.28 C 115.02 361.42 123.50 361.34 131.99 361.33 C 137.14 347.37 150.09 336.23 165.07 334.69 C 182.91 332.94 200.15 345.95 205.18 362.81 C 208.26 372.54 206.45 383.42 201.04 391.98 C 193.43 404.41 178.64 412.90 163.89 410.80 C 146.67 408.47 132.35 393.55 130.17 376.39 C 119.76 376.37 109.35 376.46 98.95 376.37 C 95.02 376.48 91.47 373.05 91.50 369.12 C 91.41 348.08 91.48 327.04 91.46 306.01 C 91.23 302.24 94.05 298.46 97.90 298.12 C 103.42 297.70 108.97 298.14 114.51 297.99 C 114.52 281.58 114.53 265.17 114.51 248.76 C 100.02 248.71 85.53 248.74 71.04 248.76 C 68.45 248.87 65.68 248.15 64.03 246.02 C 61.33 242.91 61.85 237.63 65.23 235.22 C 67.12 233.62 69.71 233.70 72.03 233.67 C 100.02 233.75 128.00 233.62 155.99 233.73 C 160.05 233.46 163.87 236.96 163.78 241.05 C 164.00 245.20 160.24 248.94 156.09 248.71 C 147.26 248.84 138.42 248.64 129.58 248.77 C 129.49 265.18 129.58 281.58 129.54 297.99 C 192.58 297.99 255.62 297.97 318.66 298.00 C 318.68 237.33 318.68 176.65 318.66 115.97 C 296.76 115.93 274.86 115.95 252.97 115.96 C 252.92 132.53 252.98 149.10 252.94 165.67 C 233.72 165.66 214.50 165.66 195.29 165.68 C 195.29 149.11 195.30 132.54 195.28 115.97 C 173.38 115.94 151.47 115.94 129.57 115.97 C 129.51 133.13 129.62 150.29 129.51 167.44 C 124.50 167.44 119.49 167.44 114.48 167.44 C 114.52 145.26 114.46 123.09 114.51 100.92 M 210.32 115.99 C 210.39 127.51 210.21 139.04 210.41 150.56 C 219.57 150.72 228.73 150.55 237.90 150.62 C 237.94 139.07 237.89 127.51 237.92 115.96 C 228.72 115.96 219.52 115.91 210.32 115.99 M 161.29 350.49 C 153.39 352.50 147.04 359.42 145.66 367.44 C 144.46 374.43 145.41 382.27 150.10 387.86 C 159.31 399.54 180.16 398.75 188.09 386.00 C 193.88 376.49 192.80 362.49 184.07 355.07 C 178.01 349.56 168.99 348.57 161.29 350.49 M 412.32 350.44 C 404.46 352.39 398.07 359.14 396.56 367.10 C 395.09 374.25 396.28 382.32 401.05 388.05 C 410.36 399.53 430.96 398.67 438.89 386.02 C 444.53 376.70 443.68 363.17 435.48 355.57 C 429.44 349.76 420.21 348.47 412.32 350.44 Z" />
<path fill="#394553" opacity="1.00" d=" M 18.36 138.54 C 21.20 138.08 24.10 138.30 26.97 138.28 C 47.99 138.33 69.03 138.23 90.05 138.32 C 94.16 138.10 97.98 141.79 97.74 145.92 C 97.77 150.00 94.04 153.57 89.94 153.30 C 66.96 153.36 43.96 153.32 20.97 153.32 C 17.76 153.53 14.52 151.76 13.30 148.73 C 11.41 144.73 14.07 139.48 18.36 138.54 Z" />
<path fill="#394553" opacity="1.00" d=" M 53.25 194.00 C 52.88 189.78 56.62 185.77 60.89 186.03 C 81.94 185.97 103.00 185.95 124.05 186.04 C 128.31 185.81 131.96 189.72 131.71 193.93 C 131.71 202.29 131.51 210.67 131.76 219.03 C 126.73 219.44 121.68 219.21 116.64 219.24 C 116.61 213.18 116.63 207.12 116.59 201.06 C 98.03 200.98 79.46 201.12 60.90 201.01 C 56.98 201.23 53.43 197.87 53.25 194.00 Z" />
<path fill="#394553" opacity="1.00" d=" M 399.91 229.10 C 403.47 226.31 409.36 227.70 411.14 231.93 C 417.16 243.94 423.23 256.04 426.95 269.01 C 427.66 271.60 428.48 274.23 428.50 276.94 C 428.23 280.68 424.82 283.81 421.07 283.72 C 412.36 283.81 403.64 283.78 394.93 283.73 C 391.17 283.83 387.73 280.68 387.49 276.93 C 386.98 273.08 390.05 269.10 393.96 268.84 C 399.66 268.49 405.38 268.86 411.10 268.67 C 407.72 258.34 402.66 248.70 397.87 238.99 C 396.03 235.74 396.80 231.28 399.91 229.10 Z" />
<path fill="#394553" opacity="1.00" d=" M 29.37 266.38 C 31.14 265.66 33.10 265.75 34.98 265.70 C 50.33 265.86 65.68 265.65 81.03 265.79 C 85.40 265.54 89.32 269.76 88.66 274.10 C 88.33 277.85 84.85 280.94 81.07 280.78 C 65.39 280.86 49.70 280.76 34.01 280.83 C 31.11 281.00 27.93 280.20 26.25 277.63 C 23.42 273.99 25.13 268.10 29.37 266.38 Z" />
<path fill="#394553" opacity="1.00" d=" M 226.04 361.36 C 270.96 361.35 315.89 361.38 360.81 361.34 C 360.84 366.35 360.83 371.36 360.82 376.37 C 315.87 376.42 270.92 376.41 225.96 376.38 C 226.00 371.37 226.01 366.36 226.04 361.36 Z" />
</g>
</svg>
