<?xml version="1.0" encoding="UTF-8" ?>
<!DOCTYPE svg PUBLIC "-//W3C//DTD SVG 1.1//EN" "http://www.w3.org/Graphics/SVG/1.1/DTD/svg11.dtd">
<svg width="256pt" height="256pt" viewBox="0 0 256 256" version="1.1" xmlns="http://www.w3.org/2000/svg">
<g id="#000000ff">
<path fill="#000000" opacity="1.00" d=" M 121.73 0.00 L 133.36 0.00 C 164.14 1.45 194.23 14.21 216.39 35.67 C 240.33 58.35 254.75 90.53 256.00 123.47 L 256.00 134.10 C 254.71 153.31 249.66 172.36 240.26 189.23 C 224.16 218.75 196.07 241.49 163.74 250.85 C 154.16 253.78 144.21 255.10 134.26 256.00 L 123.52 256.00 C 96.00 254.89 68.91 244.84 47.58 227.37 C 24.07 208.38 7.53 180.90 2.13 151.14 C 0.99 145.30 0.53 139.36 0.00 133.44 L 0.00 122.63 C 0.66 113.67 1.75 104.71 4.09 96.01 C 12.04 64.98 32.25 37.40 59.23 20.19 C 77.83 8.11 99.65 1.42 121.73 0.00 M 102.39 70.42 C 102.39 108.80 102.39 147.18 102.39 185.56 C 128.00 166.40 153.59 147.20 179.17 128.00 C 153.58 108.79 128.00 89.58 102.39 70.42 Z" />
</g>
</svg>
