<?xml version="1.0" encoding="UTF-8" ?>
<!DOCTYPE svg PUBLIC "-//W3C//DTD SVG 1.1//EN" "http://www.w3.org/Graphics/SVG/1.1/DTD/svg11.dtd">
<svg width="256pt" height="256pt" viewBox="0 0 256 256" version="1.1" xmlns="http://www.w3.org/2000/svg">
<g id="#010101ff">
</g>
<g id="#505050ff">
<path fill="#505050" opacity="1.00" d=" M 124.54 0.00 L 132.11 0.00 C 154.54 2.83 174.35 20.18 179.88 42.12 C 183.51 56.40 179.99 71.87 171.89 84.00 C 160.86 100.39 144.36 112.93 136.44 131.43 C 134.79 134.88 134.02 138.72 132.07 142.03 C 129.94 145.09 124.49 144.45 123.26 140.87 C 121.16 135.92 119.64 130.72 116.89 126.07 C 108.40 110.20 93.99 98.76 84.05 83.93 C 77.28 73.71 73.69 61.22 74.94 48.95 C 77.54 23.82 99.57 2.63 124.54 0.00 M 107.96 15.89 C 93.76 23.60 84.14 39.66 85.45 55.96 C 85.79 66.09 90.32 75.63 96.72 83.34 C 107.57 96.61 120.37 108.58 128.00 124.18 C 133.59 113.23 141.33 103.58 149.65 94.60 C 156.33 86.88 163.67 79.32 167.56 69.71 C 171.79 59.02 171.81 46.52 166.84 36.07 C 161.49 24.24 150.57 15.10 137.98 11.89 C 127.95 9.33 116.98 10.81 107.96 15.89 Z" />
<path fill="#505050" opacity="1.00" d=" M 123.42 32.57 C 135.28 29.48 147.59 39.43 149.21 51.10 C 150.74 64.19 137.50 76.85 124.46 74.35 C 114.78 72.21 106.63 63.15 106.65 53.05 C 106.96 43.54 114.39 35.07 123.42 32.57 M 123.38 43.44 C 117.21 45.68 115.84 53.98 118.75 59.26 C 121.47 64.11 128.15 65.04 132.95 63.08 C 140.77 59.84 140.64 46.50 132.70 43.48 C 129.73 42.37 126.36 42.39 123.38 43.44 Z" />
<path fill="#505050" opacity="1.00" d=" M 25.37 133.41 C 48.23 123.77 71.06 114.07 93.92 104.44 C 95.33 107.70 96.70 110.97 98.03 114.25 C 78.82 122.42 59.57 130.50 40.36 138.67 C 68.55 150.51 96.72 162.39 124.89 174.26 C 128.46 176.20 132.12 173.78 135.43 172.47 C 162.13 161.12 188.92 149.96 215.63 138.63 C 196.40 130.57 177.24 122.36 158.01 114.32 C 159.30 111.00 160.64 107.71 162.09 104.45 C 184.74 113.96 207.32 123.62 229.97 133.11 C 231.83 133.98 234.13 135.05 234.43 137.36 C 234.96 141.21 234.61 145.10 234.66 148.97 C 234.68 167.99 234.63 187.01 234.70 206.02 C 234.60 208.04 234.74 210.54 232.90 211.88 C 229.98 213.91 226.51 214.92 223.28 216.36 C 191.89 229.54 160.50 242.73 129.14 256.00 L 126.94 256.00 C 93.18 241.78 59.41 227.56 25.63 213.37 C 22.91 212.48 21.01 209.99 21.35 207.07 C 21.35 184.37 21.29 161.67 21.37 138.98 C 21.15 136.36 23.02 134.25 25.37 133.41 M 32.05 146.75 C 32.01 166.02 31.90 185.29 32.09 204.56 C 62.33 217.16 92.49 229.95 122.68 242.66 C 122.68 223.45 122.60 204.24 122.72 185.04 C 92.60 172.03 62.28 159.49 32.05 146.75 M 135.86 183.78 C 134.88 184.34 133.12 184.58 133.37 186.12 C 133.23 204.97 133.39 223.82 133.31 242.67 C 163.50 229.95 193.66 217.15 223.92 204.57 C 224.09 185.29 223.95 166.00 223.99 146.72 C 194.59 159.03 165.25 171.46 135.86 183.78 Z" />
<path fill="#505050" opacity="1.00" d=" M 202.69 186.69 C 206.24 186.66 209.78 186.65 213.33 186.66 C 213.33 190.20 213.32 193.75 213.30 197.30 C 209.75 197.32 206.20 197.33 202.66 197.33 C 202.65 193.78 202.66 190.24 202.69 186.69 Z" />
<path fill="#505050" opacity="1.00" d=" M 186.66 191.97 C 190.20 191.98 193.75 192.00 197.30 192.02 C 197.30 195.51 197.33 199.01 197.39 202.51 C 193.82 202.74 190.21 202.75 186.64 202.50 C 186.66 198.99 186.66 195.48 186.66 191.97 Z" />
</g>
</svg>
